<?xml version="1.0" encoding="UTF-8" standalone="no"?>
<!-- Created with Inkscape (http://www.inkscape.org/) -->

<svg
   xmlns:dc="http://purl.org/dc/elements/1.1/"
   xmlns:cc="http://creativecommons.org/ns#"
   xmlns:rdf="http://www.w3.org/1999/02/22-rdf-syntax-ns#"
   xmlns:svg="http://www.w3.org/2000/svg"
   xmlns="http://www.w3.org/2000/svg"
   xmlns:sodipodi="http://sodipodi.sourceforge.net/DTD/sodipodi-0.dtd"
   xmlns:inkscape="http://www.inkscape.org/namespaces/inkscape"
   id="svg4958"
   version="1.1"
   inkscape:version="0.48.4 r9939"
   width="200"
   height="200"
   sodipodi:docname="noimage.svg">
  <metadata
     id="metadata4964">
    <rdf:RDF>
      <cc:Work
         rdf:about="">
        <dc:format>image/svg+xml</dc:format>
        <dc:type
           rdf:resource="http://purl.org/dc/dcmitype/StillImage" />
        <dc:title></dc:title>
      </cc:Work>
    </rdf:RDF>
  </metadata>
  <defs
     id="defs4962" />
  <sodipodi:namedview
     pagecolor="#ffffff"
     bordercolor="#666666"
     borderopacity="1"
     objecttolerance="10"
     gridtolerance="10"
     guidetolerance="10"
     inkscape:pageopacity="0"
     inkscape:pageshadow="2"
     inkscape:window-width="1863"
     inkscape:window-height="1059"
     id="namedview4960"
     showgrid="false"
     inkscape:zoom="1.4142136"
     inkscape:cx="22.703499"
     inkscape:cy="114.11376"
     inkscape:window-x="57"
     inkscape:window-y="21"
     inkscape:window-maximized="1"
     inkscape:current-layer="svg4958" />
  <rect
     style="fill:#f7f7f7;fill-opacity:1;stroke:none"
     id="rect4968"
     width="200"
     height="200"
     x="-0.22033691"
     y="1.067791"
     inkscape:export-filename="/home/nikita/Документы/Проекты/Drupalife Store/themes/drupalife_store/noavatar.png"
     inkscape:export-xdpi="90"
     inkscape:export-ydpi="90" />
  <g
     style="font-size:40px;font-style:normal;font-variant:normal;font-weight:normal;font-stretch:normal;text-align:start;line-height:125%;letter-spacing:0px;word-spacing:0px;writing-mode:lr-tb;text-anchor:start;fill:#e6e6e6;fill-opacity:1;stroke:none;font-family:fontello;-inkscape-font-specification:fontello"
     id="text5573"
     transform="matrix(3.7560664,0,0,3.7560664,481.53341,-54.57107)"
     inkscape:export-filename="/home/nikita/Документы/Проекты/Drupalife Store/themes/drupalife_store/noavatar.png"
     inkscape:export-xdpi="90"
     inkscape:export-ydpi="90">
    <path
       d="m -80.236583,58.916664 c -4.3e-5,0.559996 -0.02671,1.399995 -0.08,2.52 l -42.679997,0 0,-1.24 c 0,-0.560005 -0.0133,-0.986671 -0.04,-1.28 0,-0.800003 0.0133,-1.293336 0.04,-1.48 0.32,-1.306668 1.17333,-2.44 2.56,-3.4 1.38666,-0.959998 2.87999,-1.666664 4.48,-2.12 1.59999,-0.45333 3.26665,-1.079996 5,-1.88 1.73332,-0.799994 3.02665,-1.66666 3.88,-2.6 0.45331,-0.586658 0.67998,-1.093325 0.68,-1.52 -2e-5,-0.586657 -0.14669,-1.559989 -0.44,-2.92 -0.10669,-0.559987 -0.24002,-1.05332 -0.4,-1.48 -0.16002,-0.426653 -0.37335,-0.866652 -0.64,-1.32 -0.26668,-0.453318 -0.48002,-0.866651 -0.64,-1.24 -0.40002,-0.933316 -0.84002,-2.693315 -1.32,-5.28 -0.16002,-1.013311 -0.24002,-2.01331 -0.24,-3 -2e-5,-2.799973 0.71998,-5.039971 2.16,-6.72 1.43998,-1.679967 3.53331,-2.519966 6.28,-2.52 2.74664,3.4e-5 4.853304,0.840033 6.319997,2.52 1.466638,1.680029 2.173303,3.920027 2.12,6.72 -3e-5,0.82669 -0.09336,1.826689 -0.28,3 -0.373362,2.373352 -0.800029,4.133351 -1.28,5.28 -0.160028,0.373349 -0.360028,0.786682 -0.6,1.24 -0.240027,0.453348 -0.453361,0.893347 -0.64,1.32 -0.186693,0.42668 -0.33336,0.920013 -0.44,1.48 -0.29336,1.360011 -0.440026,2.333343 -0.44,2.92 -2.6e-5,0.480009 0.22664,0.986675 0.68,1.52 0.826639,0.960007 2.119971,1.826672 3.88,2.6 1.759968,0.773338 3.426633,1.400004 5,1.88 1.573296,0.480003 3.053295,1.186669 4.44,2.12 1.386625,0.933333 2.239958,2.066666 2.56,3.4 0.05329,0.213331 0.07996,0.706664 0.08,1.48"
       id="path5578"
       inkscape:connector-curvature="0"
       style="fill:#e6e6e6" />
  </g>
  <g
     style="font-size:40px;font-style:normal;font-variant:normal;font-weight:normal;font-stretch:normal;text-align:start;line-height:125%;letter-spacing:0px;word-spacing:0px;writing-mode:lr-tb;text-anchor:start;fill:#f7f7f7;fill-opacity:1;stroke:none;font-family:Open Sans;-inkscape-font-specification:Open Sans"
     id="text5580"
     transform="matrix(2.2211622,0,0,2.2211622,-115.88613,-58.342052)"
     inkscape:export-filename="/home/nikita/Документы/Проекты/Drupalife Store/themes/drupalife_store/noavatar.png"
     inkscape:export-xdpi="90"
     inkscape:export-ydpi="90">
    <path
       d="m 95.093536,66.263893 0,-1.054687 c -5e-6,-1.523427 0.234369,-2.773426 0.703125,-3.75 0.468744,-0.98957 1.341139,-2.031236 2.617188,-3.125 1.770821,-1.497379 2.884101,-2.62368 3.339841,-3.378907 0.46874,-0.755188 0.70311,-1.666645 0.70313,-2.734375 -2e-5,-1.328101 -0.4297,-2.350236 -1.28906,-3.066406 -0.84637,-0.729141 -2.070327,-1.093724 -3.67188,-1.09375 -1.028653,2.6e-5 -2.031256,0.123724 -3.007812,0.371094 -0.976567,0.2344 -2.096357,0.670598 -3.359375,1.308594 l -1.152344,-2.636719 c 2.460934,-1.289034 5.032546,-1.933565 7.714844,-1.933594 2.486967,2.9e-5 4.420557,0.612008 5.800777,1.835938 1.3802,1.223984 2.0703,2.949243 2.07032,5.175781 -2e-5,0.950542 -0.13023,1.790385 -0.39063,2.519531 -0.24741,0.716165 -0.6185,1.399758 -1.11328,2.050781 -0.49481,0.638038 -1.56251,1.673193 -3.20312,3.105469 -1.315119,1.119805 -2.187514,2.050794 -2.617192,2.792969 -0.416675,0.742198 -0.625009,1.73178 -0.625,2.96875 l 0,0.644531 -2.519532,0 m -0.957031,5.800781 c -5e-6,-1.770829 0.781245,-2.656245 2.34375,-2.65625 0.755201,5e-6 1.334627,0.227869 1.738281,0.683594 0.416658,0.455733 0.624991,1.113284 0.625,1.972656 -9e-6,0.833335 -0.208342,1.484376 -0.625,1.953125 -0.416675,0.455729 -0.996101,0.683594 -1.738281,0.683594 -0.67709,0 -1.236985,-0.201823 -1.679687,-0.605469 -0.442714,-0.416666 -0.664068,-1.093748 -0.664063,-2.03125"
       style="fill:#f7f7f7;fill-opacity:1"
       id="path5585"
       inkscape:connector-curvature="0" />
  </g>
</svg>
